<svg width="36" height="37" viewBox="0 0 36 37" fill="none" xmlns="http://www.w3.org/2000/svg">
<path d="M24.2625 20H7.5C7.075 20 6.71875 19.8563 6.43125 19.5688C6.14375 19.2813 6 18.925 6 18.5C6 18.075 6.14375 17.7188 6.43125 17.4313C6.71875 17.1438 7.075 17 7.5 17H24.2625L16.9125 9.65004C16.6125 9.35004 16.4687 9.00004 16.4812 8.60004C16.4937 8.20004 16.65 7.85004 16.95 7.55004C17.25 7.27504 17.6 7.13129 18 7.11879C18.4 7.10629 18.75 7.25004 19.05 7.55004L28.95 17.45C29.1 17.6 29.2062 17.7625 29.2687 17.9375C29.3312 18.1125 29.3625 18.3 29.3625 18.5C29.3625 18.7 29.3312 18.8875 29.2687 19.0625C29.2062 19.2375 29.1 19.4 28.95 19.55L19.05 29.45C18.775 29.725 18.4312 29.8625 18.0187 29.8625C17.6062 29.8625 17.25 29.725 16.95 29.45C16.65 29.15 16.5 28.7938 16.5 28.3813C16.5 27.9688 16.65 27.6125 16.95 27.3125L24.2625 20Z" fill="white"/>
</svg>
