<svg width="21" height="21" viewBox="0 0 21 21" fill="none" xmlns="http://www.w3.org/2000/svg">
<path d="M19.3565 17.0649C18.8825 15.9422 18.1947 14.9224 17.3313 14.0624C16.4706 13.1998 15.451 12.5121 14.3288 12.0373C14.3188 12.0322 14.3087 12.0297 14.2987 12.0247C15.864 10.894 16.8816 9.05233 16.8816 6.97444C16.8816 3.53223 14.0926 0.743286 10.6504 0.743286C7.20821 0.743286 4.41927 3.53223 4.41927 6.97444C4.41927 9.05233 5.43686 10.894 7.00218 12.0272C6.99213 12.0322 6.98208 12.0347 6.97203 12.0398C5.8464 12.5146 4.83635 13.1955 3.96952 14.0649C3.10698 14.9256 2.41928 15.9452 1.94439 17.0674C1.47787 18.166 1.22626 19.3439 1.20319 20.5373C1.20252 20.5641 1.20722 20.5908 1.21702 20.6157C1.22682 20.6407 1.24152 20.6634 1.26025 20.6826C1.27899 20.7018 1.30137 20.7171 1.32609 20.7275C1.35081 20.7379 1.37737 20.7433 1.40419 20.7433H2.91173C3.02228 20.7433 3.11022 20.6553 3.11274 20.5473C3.16299 18.6076 3.94188 16.791 5.31877 15.4141C6.74339 13.9895 8.63535 13.2056 10.6504 13.2056C12.6655 13.2056 14.5575 13.9895 15.9821 15.4141C17.359 16.791 18.1379 18.6076 18.1881 20.5473C18.1906 20.6579 18.2786 20.7433 18.3891 20.7433H19.8967C19.9235 20.7433 19.95 20.7379 19.9748 20.7275C19.9995 20.7171 20.0219 20.7018 20.0406 20.6826C20.0593 20.6634 20.074 20.6407 20.0838 20.6157C20.0936 20.5908 20.0983 20.5641 20.0977 20.5373C20.0725 19.3363 19.8238 18.1679 19.3565 17.0649ZM10.6504 11.2961C9.49716 11.2961 8.41173 10.8463 7.59515 10.0297C6.77856 9.21314 6.32882 8.12771 6.32882 6.97444C6.32882 5.82118 6.77856 4.73575 7.59515 3.91917C8.41173 3.10258 9.49716 2.65283 10.6504 2.65283C11.8037 2.65283 12.8891 3.10258 13.7057 3.91917C14.5223 4.73575 14.972 5.82118 14.972 6.97444C14.972 8.12771 14.5223 9.21314 13.7057 10.0297C12.8891 10.8463 11.8037 11.2961 10.6504 11.2961Z" fill="#787878"/>
</svg>
