<svg width="19" height="16" viewBox="0 0 19 16" fill="none" xmlns="http://www.w3.org/2000/svg">
<path d="M1.9 15.5C1.3775 15.5 0.930208 15.3164 0.558125 14.9492C0.186042 14.582 0 14.1406 0 13.625V2.375C0 1.85938 0.186042 1.41797 0.558125 1.05078C0.930208 0.683594 1.3775 0.5 1.9 0.5H17.1C17.6225 0.5 18.0698 0.683594 18.4419 1.05078C18.814 1.41797 19 1.85938 19 2.375V13.625C19 14.1406 18.814 14.582 18.4419 14.9492C18.0698 15.3164 17.6225 15.5 17.1 15.5H1.9ZM9.5 8.9375L1.9 4.25V13.625H17.1V4.25L9.5 8.9375ZM9.5 7.0625L17.1 2.375H1.9L9.5 7.0625ZM1.9 4.25V2.375V13.625V4.25Z" fill="white"/>
</svg>
