<svg width="19" height="9" viewBox="0 0 19 9" fill="none" xmlns="http://www.w3.org/2000/svg">
<path d="M9.49146 9C9.29125 9 9.10654 8.97119 8.93733 8.91356C8.76811 8.85566 8.60231 8.75529 8.43991 8.61245L0.279968 1.42114C0.105795 1.26792 0.0128197 1.07988 0.00104288 0.857025C-0.0110439 0.634439 0.0819311 0.436022 0.279968 0.261776C0.477694 0.0872574 0.69696 0 0.937765 0C1.17857 0 1.39784 0.0872574 1.59556 0.261776L9.49146 7.21958L17.3874 0.261776C17.5612 0.108287 17.7746 0.0263534 18.0275 0.0159752C18.2801 0.00532379 18.5052 0.0872574 18.7029 0.261776C18.901 0.436022 19 0.62925 19 0.841458C19 1.05367 18.901 1.24689 18.7029 1.42114L10.543 8.61245C10.3806 8.75529 10.2148 8.85566 10.0456 8.91356C9.87637 8.97119 9.69166 9 9.49146 9Z" fill="#A0A9B3"/>
</svg>
