<svg width="18" height="16" viewBox="0 0 18 16" fill="none" xmlns="http://www.w3.org/2000/svg">
<path d="M13.7889 9.06206H1.59149C1.28224 9.06206 1.02301 8.96093 0.813804 8.75869C0.604601 8.55644 0.5 8.30583 0.5 8.00686C0.5 7.70788 0.604601 7.45727 0.813804 7.25503C1.02301 7.05278 1.28224 6.95166 1.59149 6.95166H13.7889L8.44061 1.78118C8.22231 1.57014 8.11771 1.32392 8.12681 1.04254C8.1359 0.761151 8.2496 0.514938 8.4679 0.303898C8.6862 0.110444 8.94088 0.00932093 9.23194 0.0005276C9.52301 -0.00826573 9.77769 0.0928576 9.99599 0.303898L17.1998 7.26822C17.309 7.37374 17.3863 7.48805 17.4318 7.61116C17.4773 7.73426 17.5 7.86616 17.5 8.00686C17.5 8.14755 17.4773 8.27945 17.4318 8.40256C17.3863 8.52566 17.309 8.63998 17.1998 8.7455L9.99599 15.7098C9.79588 15.9033 9.54575 16 9.24559 16C8.94543 16 8.6862 15.9033 8.4679 15.7098C8.2496 15.4988 8.14045 15.2482 8.14045 14.958C8.14045 14.6678 8.2496 14.4172 8.4679 14.2062L13.7889 9.06206Z" fill="white"/>
</svg>
