<svg width="20" height="18" viewBox="0 0 20 18" fill="none" xmlns="http://www.w3.org/2000/svg">
<path d="M10 9C8.9 9 7.95833 8.60833 7.175 7.825C6.39167 7.04167 6 6.1 6 5C6 3.9 6.39167 2.95833 7.175 2.175C7.95833 1.39167 8.9 1 10 1C11.1 1 12.0417 1.39167 12.825 2.175C13.6083 2.95833 14 3.9 14 5C14 6.1 13.6083 7.04167 12.825 7.825C12.0417 8.60833 11.1 9 10 9ZM2 15V14.2C2 13.6333 2.14583 13.1125 2.4375 12.6375C2.72917 12.1625 3.11667 11.8 3.6 11.55C4.63333 11.0333 5.68333 10.6458 6.75 10.3875C7.81667 10.1292 8.9 10 10 10C11.1 10 12.1833 10.1292 13.25 10.3875C14.3167 10.6458 15.3667 11.0333 16.4 11.55C16.8833 11.8 17.2708 12.1625 17.5625 12.6375C17.8542 13.1125 18 13.6333 18 14.2V15C18 15.55 17.8042 16.0208 17.4125 16.4125C17.0208 16.8042 16.55 17 16 17H4C3.45 17 2.97917 16.8042 2.5875 16.4125C2.19583 16.0208 2 15.55 2 15Z" fill="#BFC0C2"/>
</svg>
