<svg width="21" height="21" viewBox="0 0 21 21" fill="none" xmlns="http://www.w3.org/2000/svg">
<path d="M8.9775 12.7226L6.51 10.2551C6.34077 10.0859 6.13077 10.0012 5.88 10.0012C5.62922 10.0012 5.41336 10.0916 5.23241 10.2724C5.06336 10.4416 4.97884 10.6516 4.97884 10.9024C4.97884 11.1534 5.06336 11.3634 5.23241 11.5324L8.36509 14.6824C8.54009 14.8574 8.74422 14.9449 8.9775 14.9449C9.21077 14.9449 9.41491 14.8574 9.58991 14.6824L15.75 8.52259C15.9308 8.34164 16.0212 8.12577 16.0212 7.875C16.0212 7.62422 15.9308 7.40836 15.75 7.22741C15.5692 7.05836 15.3505 6.97672 15.0937 6.9825C14.837 6.98827 14.6241 7.07577 14.4551 7.245L8.9775 12.7226ZM10.5 21C9.05922 21 7.70009 20.7244 6.42259 20.1731C5.14509 19.6219 4.03086 18.8709 3.07991 17.9201C2.12914 16.9691 1.37812 15.8549 0.826875 14.5774C0.275625 13.2999 0 11.9408 0 10.5C0 9.0475 0.275625 7.6825 0.826875 6.405C1.37812 5.1275 2.12914 4.01625 3.07991 3.07125C4.03086 2.12625 5.14509 1.37812 6.42259 0.826875C7.70009 0.275625 9.05922 0 10.5 0C11.9525 0 13.3175 0.275625 14.595 0.826875C15.8725 1.37812 16.9837 2.12625 17.9287 3.07125C18.8737 4.01625 19.6219 5.1275 20.1731 6.405C20.7244 7.6825 21 9.0475 21 10.5C21 11.9408 20.7244 13.2999 20.1731 14.5774C19.6219 15.8549 18.8737 16.9691 17.9287 17.9201C16.9837 18.8709 15.8725 19.6219 14.595 20.1731C13.3175 20.7244 11.9525 21 10.5 21ZM10.5 19.2499C12.9383 19.2499 15.0062 18.3983 16.7037 16.695C18.4012 14.9917 19.2499 12.9267 19.2499 10.5C19.2499 8.06172 18.4012 5.99384 16.7037 4.29634C15.0062 2.59884 12.9383 1.75009 10.5 1.75009C8.07327 1.75009 6.00827 2.59884 4.305 4.29634C2.60172 5.99384 1.75009 8.06172 1.75009 10.5C1.75009 12.9267 2.60172 14.9917 4.305 16.695C6.00827 18.3983 8.07327 19.2499 10.5 19.2499Z" fill="#47DD00"/>
</svg>
