<svg width="21" height="21" viewBox="0 0 21 21" fill="none" xmlns="http://www.w3.org/2000/svg">
<path d="M10.651 0.522095C7.91363 0.522095 5.68662 2.7491 5.68662 5.48645V8.46506H4.69375C3.59861 8.46506 2.70801 9.35566 2.70801 10.4508V18.3938C2.70801 19.4889 3.59861 20.3795 4.69375 20.3795H16.6082C17.7033 20.3795 18.5939 19.4889 18.5939 18.3938V10.4508C18.5939 9.35566 17.7033 8.46506 16.6082 8.46506H15.6153V5.48645C15.6153 2.7491 13.3883 0.522095 10.651 0.522095ZM16.6082 10.4508L16.6102 18.3938H4.69375V10.4508H16.6082ZM7.67236 8.46506V5.48645C7.67236 3.84424 9.00876 2.50784 10.651 2.50784C12.2932 2.50784 13.6296 3.84424 13.6296 5.48645V8.46506H7.67236Z" fill="#787878"/>
</svg>
