<svg width="21" height="21" viewBox="0 0 21 21" fill="none" xmlns="http://www.w3.org/2000/svg">
<path d="M19.3574 17.0649C18.8835 15.9422 18.1957 14.9224 17.3323 14.0624C16.4716 13.1998 15.452 12.5121 14.3298 12.0373C14.3197 12.0322 14.3097 12.0297 14.2996 12.0247C15.865 10.894 16.8826 9.05233 16.8826 6.97444C16.8826 3.53223 14.0936 0.743286 10.6514 0.743286C7.20919 0.743286 4.42024 3.53223 4.42024 6.97444C4.42024 9.05233 5.43783 10.894 7.00316 12.0272C6.99311 12.0322 6.98306 12.0347 6.97301 12.0398C5.84738 12.5146 4.83733 13.1955 3.9705 14.0649C3.10796 14.9256 2.42026 15.9452 1.94537 17.0674C1.47884 18.166 1.22723 19.3439 1.20416 20.5373C1.20349 20.5641 1.2082 20.5908 1.218 20.6157C1.2278 20.6407 1.2425 20.6634 1.26123 20.6826C1.27996 20.7018 1.30235 20.7171 1.32707 20.7275C1.35179 20.7379 1.37834 20.7433 1.40517 20.7433H2.91271C3.02326 20.7433 3.1112 20.6553 3.11371 20.5473C3.16396 18.6076 3.94286 16.791 5.31974 15.4141C6.74437 13.9895 8.63633 13.2056 10.6514 13.2056C12.6665 13.2056 14.5584 13.9895 15.9831 15.4141C17.3599 16.791 18.1388 18.6076 18.1891 20.5473C18.1916 20.6579 18.2795 20.7433 18.3901 20.7433H19.8976C19.9245 20.7433 19.951 20.7379 19.9757 20.7275C20.0005 20.7171 20.0228 20.7018 20.0416 20.6826C20.0603 20.6634 20.075 20.6407 20.0848 20.6157C20.0946 20.5908 20.0993 20.5641 20.0986 20.5373C20.0735 19.3363 19.8248 18.1679 19.3574 17.0649ZM10.6514 11.2961C9.49813 11.2961 8.41271 10.8463 7.59612 10.0297C6.77954 9.21314 6.32979 8.12771 6.32979 6.97444C6.32979 5.82118 6.77954 4.73575 7.59612 3.91917C8.41271 3.10258 9.49813 2.65283 10.6514 2.65283C11.8047 2.65283 12.8901 3.10258 13.7067 3.91917C14.5233 4.73575 14.973 5.82118 14.973 6.97444C14.973 8.12771 14.5233 9.21314 13.7067 10.0297C12.8901 10.8463 11.8047 11.2961 10.6514 11.2961Z" fill="#787878"/>
</svg>
