<svg width="21" height="21" viewBox="0 0 21 21" fill="none" xmlns="http://www.w3.org/2000/svg">
<path d="M10.651 0.875732C7.91363 0.875732 5.68662 3.10274 5.68662 5.84008V8.8187H4.69375C3.59861 8.8187 2.70801 9.7093 2.70801 10.8044V18.7474C2.70801 19.8425 3.59861 20.7331 4.69375 20.7331H16.6082C17.7033 20.7331 18.5939 19.8425 18.5939 18.7474V10.8044C18.5939 9.7093 17.7033 8.8187 16.6082 8.8187H15.6153V5.84008C15.6153 3.10274 13.3883 0.875732 10.651 0.875732ZM16.6082 10.8044L16.6102 18.7474H4.69375V10.8044H16.6082ZM7.67236 8.8187V5.84008C7.67236 4.19788 9.00876 2.86147 10.651 2.86147C12.2932 2.86147 13.6296 4.19788 13.6296 5.84008V8.8187H7.67236Z" fill="#787878"/>
</svg>
